<?xml version="1.0" standalone="no"?>
<!DOCTYPE svg PUBLIC "-//W3C//DTD SVG 20010904//EN"
 "http://www.w3.org/TR/2001/REC-SVG-20010904/DTD/svg10.dtd">
<svg version="1.0" xmlns="http://www.w3.org/2000/svg"
 width="90.000000pt" height="85.000000pt" viewBox="0 0 90.000000 85.000000"
 preserveAspectRatio="xMidYMid meet">

<g transform="translate(0.000000,85.000000) scale(0.100000,-0.100000)"
fill="#000000" stroke="none">
<path d="M341 828 c-46 -25 -81 -75 -81 -116 l0 -24 30 26 c45 38 97 50 147
37 58 -16 63 -31 11 -31 -77 -1 -153 -49 -177 -113 -22 -57 -3 -207 24 -199 6
2 15 18 21 36 39 111 155 206 252 206 76 0 188 -106 218 -207 8 -29 18 -53 20
-53 12 0 54 108 54 139 0 19 -11 53 -25 77 -33 56 -124 104 -199 104 l-51 1
24 19 c31 27 111 26 170 0 24 -11 46 -18 48 -16 11 10 -24 80 -50 102 -40 33
-108 33 -172 -2 l-48 -25 -47 25 c-70 38 -116 42 -169 14z"/>
<path d="M530 584 c-6 -14 -10 -39 -10 -56 0 -45 -28 -145 -57 -202 -33 -67
-111 -140 -176 -165 -84 -32 -11 -31 125 1 105 25 120 39 155 139 21 60 26 94
27 182 1 86 -2 110 -14 117 -25 16 -40 11 -50 -16z"/>
<path d="M580 123 c-14 -2 -70 -16 -125 -31 -161 -42 -251 -37 -400 23 -39 16
47 -64 94 -87 39 -19 62 -22 146 -22 83 1 114 6 185 30 79 27 95 29 223 28
111 -1 135 1 120 10 -55 38 -178 62 -243 49z"/>
</g>
</svg>
