<?xml version="1.0" standalone="no"?>
<!DOCTYPE svg PUBLIC "-//W3C//DTD SVG 20010904//EN"
 "http://www.w3.org/TR/2001/REC-SVG-20010904/DTD/svg10.dtd">
<svg version="1.0" xmlns="http://www.w3.org/2000/svg"
 width="90.000000pt" height="85.000000pt" viewBox="0 0 90.000000 85.000000"
 preserveAspectRatio="xMidYMid meet">

<g transform="translate(0.000000,85.000000) scale(0.100000,-0.100000)"
fill="#000000" stroke="none">
<path d="M398 833 c12 -2 30 -2 40 0 9 3 -1 5 -23 4 -22 0 -30 -2 -17 -4z"/>
<path d="M717 833 c13 -2 31 -15 42 -29 10 -13 24 -24 30 -24 6 0 11 -9 11
-20 0 -16 -5 -19 -32 -14 -31 5 -30 4 11 -15 24 -12 46 -19 48 -17 9 9 -21 77
-43 97 -11 11 -36 21 -55 23 -19 2 -24 1 -12 -1z"/>
<path d="M335 819 c-26 -13 -62 -65 -71 -104 l-7 -30 24 22 c13 12 40 29 59
38 l35 16 -35 -7 c-19 -3 -41 -11 -47 -16 -9 -7 -13 -7 -13 1 0 6 7 14 15 17
8 3 17 14 20 25 4 10 18 26 33 34 30 16 19 19 -13 4z"/>
<path d="M500 805 c57 -30 68 -30 127 0 59 30 41 33 -22 3 l-45 -22 -39 22
c-21 12 -45 22 -52 22 -8 -1 6 -12 31 -25z"/>
<path d="M455 745 c22 -8 42 -15 45 -16 3 0 -6 -5 -20 -9 -24 -8 -23 -8 8 -9
17 -1 32 4 32 10 0 12 -61 39 -87 39 -10 -1 0 -7 22 -15z"/>
<path d="M663 753 c15 -2 37 -2 50 0 12 2 0 4 -28 4 -27 0 -38 -2 -22 -4z"/>
<path d="M582 738 c-25 -25 -13 -38 31 -37 l42 2 -35 6 -35 6 25 18 c22 16 23
17 4 17 -11 0 -25 -5 -32 -12z"/>
<path d="M408 703 c7 -3 16 -2 19 1 4 3 -2 6 -13 5 -11 0 -14 -3 -6 -6z"/>
<path d="M689 690 c18 -4 46 -17 62 -29 15 -12 33 -21 39 -21 29 0 49 -115 31
-180 -8 -28 -15 -20 -25 27 -7 33 -36 73 -53 73 -5 0 -19 13 -31 30 -13 16
-39 37 -59 45 -52 22 -64 18 -18 -6 76 -40 139 -118 160 -198 l12 -46 27 55
c29 62 33 108 11 149 -27 54 -118 112 -169 110 -13 -1 -9 -4 13 -9z"/>
<path d="M309 650 c-46 -48 -57 -101 -38 -184 14 -63 27 -80 36 -46 3 13 16
42 29 66 16 30 19 44 11 44 -15 0 -37 -25 -54 -60 -12 -25 -12 -25 -13 10 -4
74 0 123 12 134 30 26 71 76 63 76 -4 0 -25 -18 -46 -40z"/>
<path d="M558 653 c7 -3 16 -2 19 1 4 3 -2 6 -13 5 -11 0 -14 -3 -6 -6z"/>
<path d="M470 635 c-14 -8 -36 -19 -51 -25 -14 -6 -33 -25 -44 -42 -18 -32
-18 -32 31 10 27 23 68 48 89 56 24 9 32 15 20 15 -11 0 -31 -6 -45 -14z"/>
<path d="M537 593 c-3 -5 -7 -39 -10 -78 -4 -44 -3 -61 2 -45 5 14 9 46 10 72
1 27 6 48 14 51 9 4 9 6 0 6 -6 1 -14 -2 -16 -6z"/>
<path d="M568 453 c-3 -82 -9 -157 -12 -168 -3 -11 1 -4 10 15 32 69 44 300
15 300 -5 0 -11 -66 -13 -147z"/>
<path d="M501 398 c-31 -105 -119 -211 -197 -240 -46 -16 -43 -24 9 -19 23 3
34 6 24 9 -14 3 -7 11 29 35 26 17 61 50 78 74 16 24 33 43 37 43 8 0 44 128
37 135 -3 3 -10 -14 -17 -37z"/>
<path d="M488 205 c-10 -13 -26 -26 -35 -28 -10 -2 -4 -3 12 0 17 2 41 15 55
28 23 23 23 25 5 25 -11 0 -28 -11 -37 -25z"/>
<path d="M370 160 c-11 -8 -7 -9 15 -4 37 8 45 14 19 14 -10 0 -26 -5 -34 -10z"/>
<path d="M70 85 c35 -36 108 -76 137 -74 11 0 7 4 -9 9 -33 10 -101 50 -95 56
2 3 16 0 31 -6 15 -5 35 -10 44 -9 9 0 -1 6 -23 13 -22 7 -54 20 -72 29 -48
25 -51 21 -13 -18z"/>
<path d="M565 111 c-18 -4 6 -7 60 -6 54 0 108 -6 135 -15 l45 -15 -30 -6
c-26 -6 -24 -7 15 -8 55 -1 44 12 -33 39 -56 20 -133 24 -192 11z"/>
<path d="M475 90 l-20 -9 20 0 c11 0 29 4 40 9 l20 9 -20 0 c-11 0 -29 -4 -40
-9z"/>
<path d="M428 73 c7 -3 16 -2 19 1 4 3 -2 6 -13 5 -11 0 -14 -3 -6 -6z"/>
<path d="M628 73 c6 -2 18 -2 25 0 6 3 1 5 -13 5 -14 0 -19 -2 -12 -5z"/>
<path d="M378 63 c6 -2 18 -2 25 0 6 3 1 5 -13 5 -14 0 -19 -2 -12 -5z"/>
<path d="M558 63 c6 -2 18 -2 25 0 6 3 1 5 -13 5 -14 0 -19 -2 -12 -5z"/>
<path d="M234 49 c22 -5 57 -5 85 0 42 8 39 9 -39 9 -72 0 -79 -1 -46 -9z"/>
<path d="M485 48 c-16 -5 -50 -15 -75 -23 -25 -7 -36 -13 -25 -14 11 0 52 11
90 24 39 12 63 23 55 23 -8 0 -28 -4 -45 -10z"/>
<path d="M258 3 c17 -2 47 -2 65 0 17 2 3 4 -33 4 -36 0 -50 -2 -32 -4z"/>
</g>
</svg>
